# Wavefront OBJ file
# Exported by Misfit Model 3D 1.3.8
# Wed Jun 14 09:12:52 2017

mtllib diglett.mtl

# 54 Vertices
v -2.49039 0.826443 0.0
v -1.82196 1.511559 -1.080567
v -2.136942 0.0 -2.05695
v -1.82196 1.511559 1.080567
v -2.136942 0.0 2.05695
v -1.136619 0.826443 2.403504
v 1.136619 0.826443 2.403504
v 0.0 1.455543 2.275488
v 1.82196 1.511559 1.080567
v 0.0 1.101807 0.0
v 1.82196 1.511559 -1.080567
v -0.0 1.455543 -2.275488
v 1.136619 0.826443 -2.403504
v -1.136619 0.826443 -2.403504
v 2.136942 0.0 -2.05695
v 2.136942 0.0 2.05695
v 2.49039 0.826443 -0.0
v 0.0 4.688883 0.790335
v 0.816102 4.146966 1.22274
v 0.58212 4.828707 -0.025047
v -0.816102 4.146966 1.22274
v -0.58212 4.828707 -0.025047
v -1.401561 4.169817 0.323388
v -1.034775 4.210119 -0.953397
v -1.57428 3.233772 -0.797553
v -0.0 3.683493 -1.654749
v -0.0 2.112507 -1.654749
v 1.57428 3.233772 -0.797553
v 1.57428 2.112507 -0.510966
v 1.401561 4.169817 0.323388
v 1.103274 2.112507 1.310319
v 1.103274 3.481632 1.310319
v 0.0 3.481632 1.440639
v -1.103274 3.481632 1.310319
v -1.103274 2.112507 1.310319
v -1.57428 2.112507 -0.510966
v -0.868194 0.823905 1.295892
v -1.404765 0.823905 -0.456435
v 0.868194 0.823905 1.295892
v 0.0 2.112507 1.440639
v 1.404765 0.823905 -0.456435
v -0.0 0.823905 -1.477053
v -0.0 4.688883 -0.854433
v 1.034775 4.210119 -0.953397
v 0.0 2.658771 1.751643
v 0.363168 2.780622 1.388673
v -0.363168 2.780622 1.388673
v 0.587619 2.434068 1.612575
v 0.0 2.266308 1.751031
v 0.401166 2.145591 1.387683
v -0.401166 2.145591 1.387683
v -0.587619 2.434068 1.612575
v 0.587619 2.43477 1.163682
v -0.587619 2.43477 1.163682

# 267 Texture Coordinates
vt 0.999756 1.001892
vt 0.138611 0.734741
vt 0.999756 0.734741
vt 0.999756 1.001892
vt 0.138611 1.001892
vt 0.138611 0.734741
vt 0.138611 0.734741
vt 0.999756 1.001892
vt 0.999756 0.734741
vt 0.138611 0.734741
vt 0.138611 1.001892
vt 0.999756 1.001892
vt 0.125977 0.273956
vt 0.171967 0.458862
vt 0.139679 0.050934
vt 0.125977 0.273956
vt 0.171967 0.458862
vt 0.171967 0.458862
vt 0.139679 0.050934
vt 0.171967 0.458862
vt 0.125977 0.273956
vt 0.139679 0.050934
vt 0.208893 0.273956
vt 0.171967 0.458862
vt 0.328369 0.273956
vt 0.208893 0.273956
vt 0.139679 0.050934
vt 0.328369 0.273956
vt 0.268616 0.443726
vt 0.208893 0.273956
vt 0.365265 0.458862
vt 0.268616 0.443726
vt 0.328369 0.273956
vt 0.365265 0.458862
vt 0.268616 0.030609
vt 0.268616 0.443726
vt 0.365265 0.458862
vt 0.268616 0.030609
vt 0.365265 0.458862
vt 0.365265 0.458862
vt 0.268616 0.443726
vt 0.268616 0.030609
vt 0.328369 0.273956
vt 0.268616 0.443726
vt 0.365265 0.458862
vt 0.328369 0.273956
vt 0.208893 0.273956
vt 0.268616 0.443726
vt 0.397583 0.050934
vt 0.208893 0.273956
vt 0.328369 0.273956
vt 0.397583 0.050934
vt 0.139679 0.050934
vt 0.208893 0.273956
vt 0.397583 0.050934
vt 0.139679 0.050934
vt 0.397583 0.050934
vt 0.397583 0.050934
vt 0.139679 0.050934
vt 0.139679 0.050934
vt 0.328369 0.273956
vt 0.139679 0.050934
vt 0.397583 0.050934
vt 0.397583 0.050934
vt 0.365265 0.458862
vt 0.328369 0.273956
vt 0.397583 0.050934
vt 0.411285 0.273956
vt 0.365265 0.458862
vt 0.397583 0.050934
vt 0.411285 0.273956
vt 0.397583 0.050934
vt 0.397583 0.050934
vt 0.365265 0.458862
vt 0.411285 0.273956
vt 0.328369 0.273956
vt 0.365265 0.458862
vt 0.397583 0.050934
vt 0.171967 0.458862
vt 0.208893 0.273956
vt 0.139679 0.050934
vt 0.171967 0.458862
vt 0.268616 0.443726
vt 0.208893 0.273956
vt 0.268616 0.030609
vt 0.268616 0.443726
vt 0.171967 0.458862
vt 0.171967 0.458862
vt 0.268616 0.030609
vt 0.171967 0.458862
vt 0.171967 0.458862
vt 0.268616 0.443726
vt 0.268616 0.030609
vt 0.208893 0.273956
vt 0.268616 0.443726
vt 0.171967 0.458862
vt 0.125977 0.273956
vt 0.139679 0.050934
vt 0.139679 0.050934
vt 0.365265 0.458862
vt 0.365265 0.458862
vt 0.411285 0.273956
vt 0.746979 0.242371
vt 0.746979 0.242371
vt 0.746979 0.242371
vt 0.746979 0.242371
vt 0.746979 0.242371
vt 0.746979 0.242371
vt 0.746979 0.242371
vt 0.746979 0.242371
vt 0.746979 0.242371
vt 0.746979 0.242371
vt 0.746979 0.242371
vt 0.746979 0.242371
vt 0.746979 0.242371
vt 0.746979 0.242371
vt 0.746979 0.242371
vt 0.746979 0.242371
vt 0.746979 0.242371
vt 0.746979 0.242371
vt 0.746979 0.242371
vt 0.746979 0.242371
vt 0.746979 0.242371
vt 0.746979 0.242371
vt 0.746979 0.242371
vt 0.746979 0.242371
vt 0.746979 0.242371
vt 0.746979 0.242371
vt 0.746979 0.242371
vt 0.746979 0.242371
vt 0.746979 0.242371
vt 0.746979 0.242371
vt 0.746979 0.242371
vt 0.746979 0.242371
vt 0.746979 0.242371
vt 0.746979 0.242371
vt 0.746979 0.242371
vt 0.746979 0.242371
vt 0.746979 0.242371
vt 0.746979 0.242371
vt 0.746979 0.242371
vt 0.746979 0.242371
vt 0.746979 0.242371
vt 0.746979 0.242371
vt 0.746979 0.242371
vt 0.746979 0.242371
vt 0.746979 0.242371
vt 0.746979 0.242371
vt 0.746979 0.242371
vt 0.746979 0.242371
vt 0.746979 0.242371
vt 0.746979 0.242371
vt 0.746979 0.242371
vt 0.746979 0.242371
vt 0.746979 0.242371
vt 0.746979 0.242371
vt 0.746979 0.242371
vt 0.746979 0.242371
vt 0.746979 0.242371
vt 0.746979 0.242371
vt 0.746979 0.242371
vt 0.746979 0.242371
vt 0.746979 0.242371
vt 0.746979 0.242371
vt 0.746979 0.242371
vt 0.746979 0.242371
vt 0.746979 0.242371
vt 0.746979 0.242371
vt 0.746979 0.242371
vt 0.746979 0.242371
vt 0.746979 0.242371
vt 0.746979 0.242371
vt 0.746979 0.242371
vt 0.746979 0.242371
vt 0.746979 0.242371
vt 0.746979 0.242371
vt 0.746979 0.242371
vt 0.746979 0.242371
vt 0.746979 0.242371
vt 0.746979 0.242371
vt 0.746979 0.242371
vt 0.746979 0.242371
vt 0.746979 0.242371
vt 0.746979 0.242371
vt 0.746979 0.242371
vt 0.746979 0.242371
vt 0.746979 0.242371
vt 0.746979 0.242371
vt 0.746979 0.242371
vt 0.746979 0.242371
vt 0.746979 0.242371
vt 0.746979 0.242371
vt 0.746979 0.242371
vt 0.746979 0.242371
vt 0.746979 0.242371
vt 0.746979 0.242371
vt 0.746979 0.242371
vt 0.746979 0.242371
vt 0.746979 0.242371
vt 0.746979 0.242371
vt 0.746979 0.242371
vt 0.746979 0.242371
vt 0.746979 0.242371
vt 0.746979 0.242371
vt 0.746979 0.242371
vt 0.746979 0.242371
vt 0.746979 0.242371
vt 0.746979 0.242371
vt 0.746979 0.242371
vt 0.746979 0.242371
vt 0.811768 0.270721
vt 0.811768 0.270721
vt 0.811768 0.270721
vt 0.811768 0.270721
vt 0.811768 0.270721
vt 0.811768 0.270721
vt 0.746979 0.242371
vt 0.746979 0.242371
vt 0.746979 0.242371
vt 0.746979 0.242371
vt 0.746979 0.242371
vt 0.746979 0.242371
vt 0.746979 0.242371
vt 0.746979 0.242371
vt 0.746979 0.242371
vt 0.746979 0.242371
vt 0.746979 0.242371
vt 0.746979 0.242371
vt 0.746979 0.242371
vt 0.746979 0.242371
vt 0.746979 0.242371
vt 0.5 0.907166
vt 0.843323 0.99176
vt 0.156677 0.99176
vt 0.5 0.907166
vt 1.055542 0.750366
vt 0.843323 0.99176
vt 0.5 0.633545
vt 1.055542 0.750366
vt 0.5 0.907166
vt 0.5 0.633545
vt 0.879272 0.549011
vt 1.055542 0.750366
vt 0.120728 0.549011
vt 0.879272 0.549011
vt 0.5 0.633545
vt -0.055542 0.750366
vt 0.5 0.907166
vt 0.156677 0.99176
vt -0.055542 0.750366
vt 0.5 0.633545
vt 0.5 0.907166
vt 0.120728 0.549011
vt 0.5 0.633545
vt -0.055542 0.750366
vt 1.055542 0.750366
vt 1.055542 0.750366
vt 0.843323 0.99176
vt 1.055542 0.750366
vt 0.879272 0.549011
vt 1.055542 0.750366
vt -0.055542 0.750366
vt -0.055542 0.750366
vt 0.156677 0.99176
vt -0.055542 0.750366
vt 0.120728 0.549011
vt -0.055542 0.750366

# 267 Vertex Normals
vn 0.478288 0.132809 0.868102
vn 0.0 -0.025401 0.999677
vn 0.745694 -0.054948 0.664019
vn 0.478288 0.132809 0.868102
vn 0.0 0.13535 0.990798
vn 0.0 -0.025401 0.999677
vn 0.0 -0.025401 0.999677
vn -0.478288 0.132809 0.868102
vn -0.745694 -0.054948 0.664019
vn 0.0 -0.025401 0.999677
vn 0.0 0.13535 0.990798
vn -0.478288 0.132809 0.868102
vn -0.95431 0.298817 -0.0
vn -0.443296 0.857493 -0.261139
vn -0.79987 0.035859 -0.599101
vn -0.95431 0.298817 -0.0
vn -0.443296 0.857493 0.261139
vn -0.443296 0.857493 -0.261139
vn -0.660828 -0.075932 0.746687
vn -0.443296 0.857493 0.261139
vn -0.95431 0.298817 -0.0
vn -0.660828 -0.075932 0.746687
vn -0.288219 0.316132 0.903875
vn -0.443296 0.857493 0.261139
vn 0.234719 0.164373 0.958065
vn -0.288219 0.316132 0.903875
vn -0.625552 -0.330272 0.706828
vn 0.234719 0.164373 0.958065
vn 0.0 0.895978 0.444099
vn -0.288219 0.316132 0.903875
vn 0.443296 0.857493 0.261139
vn 0.0 0.895978 0.444099
vn 0.234719 0.164373 0.958065
vn 0.443296 0.857493 0.261139
vn 0.0 1.0 0.0
vn 0.0 0.895978 0.444099
vn 0.443296 0.857493 -0.261139
vn 0.0 1.0 0.0
vn 0.443296 0.857493 0.261139
vn 0.443296 0.857493 -0.261139
vn -0.0 0.895978 -0.444099
vn 0.0 1.0 0.0
vn 0.288219 0.316132 -0.903875
vn -0.0 0.895978 -0.444099
vn 0.443296 0.857493 -0.261139
vn 0.288219 0.316132 -0.903875
vn -0.234719 0.164373 -0.958065
vn -0.0 0.895978 -0.444099
vn 0.625552 -0.330272 -0.706828
vn -0.234719 0.164373 -0.958065
vn 0.288219 0.316132 -0.903875
vn 0.625552 -0.330272 -0.706828
vn -0.678621 -0.530206 -0.508286
vn -0.234719 0.164373 -0.958065
vn 0.29951 -0.905565 0.300408
vn -0.29951 -0.905565 -0.300408
vn 0.307482 -0.724571 -0.616808
vn 0.29951 -0.905565 0.300408
vn -0.307482 -0.724571 0.616808
vn -0.29951 -0.905565 -0.300408
vn 0.234719 0.164373 0.958065
vn -0.625552 -0.330272 0.706828
vn 0.678621 -0.530206 0.508286
vn 0.79987 0.035859 0.599101
vn 0.443296 0.857493 0.261139
vn 0.234719 0.164373 0.958065
vn 0.79987 0.035859 0.599101
vn 0.95431 0.298817 0.0
vn 0.443296 0.857493 0.261139
vn 0.625552 -0.330272 -0.706828
vn 0.95431 0.298817 0.0
vn 0.678621 -0.530206 0.508286
vn 0.660827 -0.075932 -0.746687
vn 0.443296 0.857493 -0.261139
vn 0.95431 0.298817 0.0
vn 0.288219 0.316132 -0.903875
vn 0.443296 0.857493 -0.261139
vn 0.660827 -0.075932 -0.746687
vn -0.443296 0.857493 -0.261139
vn -0.234719 0.164373 -0.958065
vn -0.79987 0.035859 -0.599101
vn -0.443296 0.857493 -0.261139
vn -0.0 0.895978 -0.444099
vn -0.234719 0.164373 -0.958065
vn 0.0 1.0 0.0
vn -0.0 0.895978 -0.444099
vn -0.443296 0.857493 -0.261139
vn -0.443296 0.857493 0.261139
vn 0.0 1.0 0.0
vn -0.443296 0.857493 -0.261139
vn -0.443296 0.857493 0.261139
vn 0.0 0.895978 0.444099
vn 0.0 1.0 0.0
vn -0.288219 0.316132 0.903875
vn 0.0 0.895978 0.444099
vn -0.443296 0.857493 0.261139
vn -0.95431 0.298817 -0.0
vn -0.678621 -0.530206 -0.508286
vn -0.625552 -0.330272 0.706828
vn 0.443296 0.857493 -0.261139
vn 0.443296 0.857493 0.261139
vn 0.95431 0.298817 0.0
vn -0.0 0.884314 0.466892
vn 0.323143 0.590051 0.739877
vn 0.337211 0.94084 0.033297
vn -0.0 0.884314 0.466892
vn -0.323143 0.590051 0.739877
vn 0.323143 0.590051 0.739877
vn -0.337211 0.94084 0.033297
vn -0.323143 0.590051 0.739877
vn -0.0 0.884314 0.466892
vn -0.337211 0.94084 0.033297
vn -0.908173 0.379073 0.177554
vn -0.323143 0.590051 0.739877
vn -0.576693 0.616713 -0.535808
vn -0.908173 0.379073 0.177554
vn -0.337211 0.94084 0.033297
vn -0.576693 0.616713 -0.535808
vn -0.788625 0.095495 -0.607414
vn -0.908173 0.379073 0.177554
vn -0.0 0.288559 -0.957462
vn -0.788625 0.095495 -0.607414
vn -0.576693 0.616713 -0.535808
vn -0.0 0.288559 -0.957462
vn -0.0 -0.128328 -0.991732
vn -0.788625 0.095495 -0.607414
vn 0.788625 0.095495 -0.607414
vn -0.0 -0.128328 -0.991732
vn -0.0 0.288559 -0.957462
vn 0.788625 0.095495 -0.607414
vn 0.984225 -0.115764 -0.13379
vn -0.0 -0.128328 -0.991732
vn 0.908173 0.379073 0.177554
vn 0.984225 -0.115764 -0.13379
vn 0.788625 0.095495 -0.607414
vn 0.908173 0.379073 0.177554
vn 0.745694 -0.054948 0.664019
vn 0.984225 -0.115764 -0.13379
vn 0.478288 0.132809 0.868102
vn 0.745694 -0.054948 0.664019
vn 0.908173 0.379073 0.177554
vn -0.323143 0.590051 0.739877
vn 0.0 0.13535 0.990798
vn 0.323143 0.590051 0.739877
vn -0.323143 0.590051 0.739877
vn -0.478288 0.132809 0.868102
vn 0.0 0.13535 0.990798
vn -0.908173 0.379073 0.177554
vn -0.478288 0.132809 0.868102
vn -0.323143 0.590051 0.739877
vn -0.908173 0.379073 0.177554
vn -0.745694 -0.054948 0.664019
vn -0.478288 0.132809 0.868102
vn -0.984225 -0.115764 -0.133789
vn -0.745694 -0.054948 0.664019
vn -0.908173 0.379073 0.177554
vn -0.984225 -0.115764 -0.133789
vn -0.619402 -0.132879 0.773747
vn -0.745694 -0.054948 0.664019
vn -0.841704 -0.132874 -0.523335
vn -0.619402 -0.132879 0.773747
vn -0.984225 -0.115764 -0.133789
vn 0.619402 -0.132879 0.773747
vn 0.745694 -0.054948 0.664019
vn 0.0 -0.025401 0.999677
vn 0.619402 -0.132879 0.773747
vn 0.984225 -0.115764 -0.13379
vn 0.745694 -0.054948 0.664019
vn 0.841704 -0.132874 -0.523335
vn 0.984225 -0.115764 -0.13379
vn 0.619402 -0.132879 0.773747
vn 0.841704 -0.132874 -0.523335
vn -0.0 -0.128328 -0.991732
vn 0.984225 -0.115764 -0.13379
vn -0.0 -0.136606 -0.990626
vn -0.0 -0.128328 -0.991732
vn 0.841704 -0.132874 -0.523335
vn -0.0 -0.136606 -0.990626
vn -0.841704 -0.132874 -0.523335
vn -0.0 -0.128328 -0.991732
vn -0.0 0.843814 -0.536636
vn -0.576693 0.616713 -0.535808
vn -0.337211 0.94084 0.033297
vn -0.0 0.843814 -0.536636
vn -0.0 0.288559 -0.957462
vn -0.576693 0.616713 -0.535808
vn 0.576693 0.616713 -0.535808
vn -0.0 0.288559 -0.957462
vn -0.0 0.843814 -0.536636
vn 0.576693 0.616713 -0.535808
vn 0.788625 0.095495 -0.607414
vn -0.0 0.288559 -0.957462
vn 0.908173 0.379073 0.177554
vn 0.788625 0.095495 -0.607414
vn 0.576693 0.616713 -0.535808
vn 0.337211 0.94084 0.033297
vn 0.576693 0.616713 -0.535808
vn -0.0 0.843814 -0.536636
vn 0.337211 0.94084 0.033297
vn 0.908173 0.379073 0.177554
vn 0.576693 0.616713 -0.535808
vn 0.323143 0.590051 0.739877
vn 0.908173 0.379073 0.177554
vn 0.337211 0.94084 0.033297
vn 0.323143 0.590051 0.739877
vn 0.478288 0.132809 0.868102
vn 0.908173 0.379073 0.177554
vn 0.0 0.13535 0.990798
vn 0.478288 0.132809 0.868102
vn 0.323143 0.590051 0.739877
vn -0.337211 0.94084 0.033297
vn 0.337211 0.94084 0.033297
vn -0.0 0.843814 -0.536636
vn -0.337211 0.94084 0.033297
vn -0.0 0.884314 0.466892
vn 0.337211 0.94084 0.033297
vn -0.788625 0.095495 -0.607414
vn -0.984225 -0.115764 -0.133789
vn -0.908173 0.379073 0.177554
vn -0.788625 0.095495 -0.607414
vn -0.0 -0.128328 -0.991732
vn -0.984225 -0.115764 -0.133789
vn -0.619402 -0.132879 0.773747
vn 0.0 -0.025401 0.999677
vn -0.745694 -0.054948 0.664019
vn -0.619402 -0.132879 0.773747
vn 0.619402 -0.132879 0.773747
vn 0.0 -0.025401 0.999677
vn -0.984225 -0.115764 -0.133789
vn -0.0 -0.128328 -0.991732
vn -0.841704 -0.132874 -0.523335
vn -0.0 0.543362 0.839499
vn 0.466324 0.810172 0.355194
vn -0.466325 0.810172 0.355194
vn -0.0 0.543362 0.839499
vn 0.624473 0.172698 0.761714
vn 0.466324 0.810172 0.355194
vn 0.0 -0.559976 0.828509
vn 0.767888 -0.011344 0.640484
vn -0.0 0.543362 0.839499
vn 0.0 -0.559976 0.828509
vn 0.445364 -0.82425 0.349662
vn 0.621787 -0.199255 0.757416
vn -0.445364 -0.82425 0.349662
vn 0.445364 -0.82425 0.349662
vn 0.0 -0.559976 0.828509
vn -0.624473 0.172698 0.761714
vn -0.0 0.543362 0.839499
vn -0.466325 0.810172 0.355194
vn -0.767888 -0.011344 0.640484
vn 0.0 -0.559976 0.828509
vn -0.0 0.543362 0.839499
vn -0.445364 -0.82425 0.349662
vn 0.0 -0.559976 0.828509
vn -0.621787 -0.199255 0.757416
vn 0.800086 0.230622 0.553783
vn 1.0 0.000977 0.000002
vn 0.466324 0.810172 0.355194
vn 0.791781 -0.247661 0.558342
vn 0.445364 -0.82425 0.349662
vn 1.0 0.000977 0.000002
vn -1.0 0.000977 0.000002
vn -0.800086 0.230622 0.553783
vn -0.466325 0.810172 0.355194
vn -1.0 0.000977 0.000002
vn -0.445364 -0.82425 0.349662
vn -0.791781 -0.247661 0.558342

# Pii_DHIGUDA_eye, 4 grouped triangles

usemtl Pii_DHIGUDA_eye
o Pii_DHIGUDA_eye
g Pii_DHIGUDA_eye

f 32/1/1 40/2/2 31/3/3
f 32/4/4 33/5/5 40/6/6
f 40/7/7 34/8/8 35/9/9
f 40/10/10 33/11/11 34/12/12
# Pii_DHIGUDA_body2, 85 grouped triangles

usemtl Pii_DHIGUDA_body
o Pii_DHIGUDA_body2
g Pii_DHIGUDA_body2

f 1/13/13 2/14/14 3/15/15
f 1/16/16 4/17/17 2/18/18
f 5/19/19 4/20/20 1/21/21
f 5/22/22 6/23/23 4/24/24
f 7/25/25 6/26/26 5/27/27
f 7/28/28 8/29/29 6/30/30
f 9/31/31 8/32/32 7/33/33
f 9/34/34 10/35/35 8/36/36
f 11/37/37 10/38/38 9/39/39
f 11/40/40 12/41/41 10/42/42
f 13/43/43 12/44/44 11/45/45
f 13/46/46 14/47/47 12/48/48
f 15/49/49 14/50/50 13/51/51
f 15/52/52 3/53/53 14/54/54
f 16/55/55 3/56/56 15/57/57
f 16/58/58 5/59/59 3/60/60
f 7/61/61 5/62/62 16/63/63
f 16/64/64 9/65/65 7/66/66
f 16/67/67 17/68/68 9/69/69
f 15/70/70 17/71/71 16/72/72
f 15/73/73 11/74/74 17/75/75
f 13/76/76 11/77/77 15/78/78
f 2/79/79 14/80/80 3/81/81
f 2/82/82 12/83/83 14/84/84
f 10/85/85 12/86/86 2/87/87
f 4/88/88 10/89/89 2/90/90
f 4/91/91 8/92/92 10/93/93
f 6/94/94 8/95/95 4/96/96
f 1/97/97 3/98/98 5/99/99
f 11/100/100 9/101/101 17/102/102
f 18/103/103 19/104/104 20/105/105
f 18/106/106 21/107/107 19/108/108
f 22/109/109 21/110/110 18/111/111
f 22/112/112 23/113/113 21/114/114
f 24/115/115 23/116/116 22/117/117
f 24/118/118 25/119/119 23/120/120
f 26/121/121 25/122/122 24/123/123
f 26/124/124 27/125/125 25/126/126
f 28/127/127 27/128/128 26/129/129
f 28/130/130 29/131/131 27/132/132
f 30/133/133 29/134/134 28/135/135
f 30/136/136 31/137/137 29/138/138
f 32/139/139 31/140/140 30/141/141
f 21/142/142 33/143/143 19/144/144
f 21/145/145 34/146/146 33/147/147
f 23/148/148 34/149/149 21/150/150
f 23/151/151 35/152/152 34/153/153
f 36/154/154 35/155/155 23/156/156
f 36/157/157 37/158/158 35/159/159
f 38/160/160 37/161/161 36/162/162
f 39/163/163 31/164/164 40/165/165
f 39/166/166 29/167/167 31/168/168
f 41/169/169 29/170/170 39/171/171
f 41/172/172 27/173/173 29/174/174
f 42/175/175 27/176/176 41/177/177
f 42/178/178 38/179/179 27/180/180
f 43/181/181 24/182/182 22/183/183
f 43/184/184 26/185/185 24/186/186
f 44/187/187 26/188/188 43/189/189
f 44/190/190 28/191/191 26/192/192
f 30/193/193 28/194/194 44/195/195
f 20/196/196 44/197/197 43/198/198
f 20/199/199 30/200/200 44/201/201
f 19/202/202 30/203/203 20/204/204
f 19/205/205 32/206/206 30/207/207
f 33/208/208 32/209/209 19/210/210
f 22/211/211 20/212/212 43/213/213
f 22/214/214 18/215/215 20/216/216
f 25/217/217 36/218/218 23/219/219
f 25/220/220 27/221/221 36/222/222
f 37/223/223 40/224/224 35/225/225
f 37/226/226 39/227/227 40/228/228
f 36/229/229 27/230/230 38/231/231
f 45/232/232 46/233/233 47/234/234
f 45/235/235 48/236/236 46/237/237
f 49/238/238 48/239/239 45/240/240
f 49/241/241 50/242/242 48/243/243
f 51/244/244 50/245/245 49/246/246
f 52/247/247 45/248/248 47/249/249
f 52/250/250 49/251/251 45/252/252
f 51/253/253 49/254/254 52/255/255
f 48/256/256 53/257/257 46/258/258
f 48/259/259 50/260/260 53/261/261
f 54/262/262 52/263/263 47/264/264
f 54/265/265 51/266/266 52/267/267
